<svg xmlns="http://www.w3.org/2000/svg" viewBox="0 0 231.89825 69.05744"><defs><style>.cls-1{fill:#fff;}.cls-2{font-size:23px;fill:#666;font-family:Montserrat-Bold, Montserrat;font-weight:700;}.cls-3{fill:#ffc000;}.cls-4{fill:#ff3a00;}.cls-5{fill:#00af47;}.cls-6{fill:#0077d4;}</style></defs><title>google button</title><g id="Layer_2" data-name="Layer 2"><g id="slider2"><rect class="cls-1" width="231.89825" height="69.05744" rx="5.11021" ry="5.11021"/><text class="cls-2" transform="translate(95.95296 41.70687)">Google</text><path class="cls-3" d="M64.36991,31.54548H62.97928v-.07165H47.44153V38.3795h9.75685a10.36651,10.36651,0,1,1-2.88484-11.188l4.88317-4.88317a17.24642,17.24642,0,1,0,5.509,12.61838A17.38172,17.38172,0,0,0,64.36991,31.54548Z"/><path class="cls-4" d="M32.16792,26.89106l5.67214,4.1598a10.33758,10.33758,0,0,1,16.47347-3.85941l4.88317-4.88317a17.2303,17.2303,0,0,0-27.02878,4.58277Z"/><path class="cls-5" d="M47.44153,52.19084a17.18337,17.18337,0,0,0,11.57476-4.48178L53.673,43.18757a10.33169,10.33169,0,0,1-15.97108-4.76146L32.0721,42.76374A17.25054,17.25054,0,0,0,47.44153,52.19084Z"/><path class="cls-6" d="M64.36991,31.54548H62.97928v-.07165H47.44153V38.3795h9.75685a10.39313,10.39313,0,0,1-3.52793,4.80893l.00259-.00173,5.34326,4.52148A16.70032,16.70032,0,0,0,64.7057,34.92667,17.38172,17.38172,0,0,0,64.36991,31.54548Z"/></g></g></svg>