<svg xmlns="http://www.w3.org/2000/svg" width="1280" height="4811" viewBox="0 0 1280 4811"><defs><style>.cls-1{fill:#e5e3dc;}.cls-2{fill:#a3344a;}.cls-3{fill:#d8d5cd;opacity:0.8;}.cls-4{fill:#973349;opacity:0.17;}</style></defs><title>Fujitsu landing page_r4_FULL</title><g id="mobile_view" data-name="mobile view"><rect class="cls-1" y="0.5" width="1280" height="2897.5"/><rect class="cls-2" x="-604" y="687" width="747" height="747" rx="112.6187" ry="112.6187" transform="translate(682.3749 473.6014) rotate(45)"/><rect class="cls-2" x="1320.4668" y="-1649.6875" width="2661.3683" height="2661.3683" rx="401.2312" ry="401.2312" transform="translate(161.8838 -1285.3954) rotate(28.0786)"/><polygon class="cls-3" points="241.908 1222.736 111.509 1351.267 270.59 1401.138 241.908 1222.736"/><polygon class="cls-3" points="319.025 842.073 190.59 878.643 274.905 966.256 319.025 842.073"/><path class="cls-4" d="M1280,4750.7052c-107.1325-70.1525-179.0534-140.4495-179.0534-140.4495s-152.8493-144.98-362.0114,23.8027C558.307,4779.8162,117.0352,4786.79,0,4785.9806V4811H1280Z"/><path class="cls-2" d="M716,4650.3333s-208-80-410-80c-119.6895,0-233.2907,45.64-306,82.8354V4811H1280V4563.1849C1128.5664,4841.6124,716,4650.3333,716,4650.3333Z"/></g></svg>